<?xml version="1.0" encoding="utf-8"?>
<!-- Generator: Adobe Illustrator 22.1.0, SVG Export Plug-In . SVG Version: 6.00 Build 0)  -->
<svg version="1.1" id="图层_1" xmlns="http://www.w3.org/2000/svg" xmlns:xlink="http://www.w3.org/1999/xlink" x="0px" y="0px"
	 viewBox="0 0 48 48" style="enable-background:new 0 0 48 48;" xml:space="preserve">
<style type="text/css">
	.st0{fill:#D81E06;}
	.st1{fill:#FFFFFF;}
</style>
<path class="st0" d="M23.3,48c-2.9,0-5.6-0.6-8.2-1.7c-2.5-1.1-4.8-2.6-6.7-4.5c-1.9-1.9-3.5-4.2-4.5-6.7c-1.1-2.6-1.7-5.4-1.7-8.2
	s0.6-5.6,1.7-8.2c1.1-2.5,2.6-4.8,4.5-6.7s4.2-3.5,6.7-4.5c2.6-1.1,5.4-1.7,8.2-1.7s5.6,0.6,8.2,1.7C34,8.5,36.3,10,38.2,12
	s3.5,4.2,4.5,6.7c1.1,2.6,1.7,5.4,1.7,8.2s-0.6,5.6-1.7,8.2c-1.1,2.5-2.6,4.8-4.5,6.7c-1.9,1.9-4.2,3.5-6.7,4.5
	C28.9,47.4,26.1,48,23.3,48z M23.3,8.3C13,8.3,4.7,16.6,4.7,26.9S13,45.5,23.3,45.5s18.6-8.3,18.6-18.6S33.5,8.3,23.3,8.3z"/>
<path class="st0" d="M20.4,25.3c-0.6,0-1.3-0.2-1.8-0.7L18,23.9l-0.9-0.2c-0.9-0.2-1.7-0.8-1.9-1.7c-0.3-0.9-0.1-1.9,0.6-2.5
	l0.6-0.6l0.2-0.9c0.2-0.9,0.8-1.7,1.7-1.9c0.9-0.3,1.9-0.1,2.5,0.6l0.6,0.6l0.9,0.2c0.9,0.2,1.7,0.8,1.9,1.7
	c0.3,0.9,0.1,1.9-0.6,2.5l-0.6,0.6l-0.2,0.9c-0.2,0.9-0.8,1.7-1.7,1.9C20.9,25.2,20.7,25.3,20.4,25.3z M17.6,21.3l0.9,0.2
	c0.5,0.1,0.9,0.3,1.3,0.7l0.6,0.6l0.2-0.9c0.1-0.5,0.3-0.9,0.7-1.3l0.6-0.6L21,19.8c-0.5-0.1-0.9-0.3-1.3-0.7l-0.6-0.6l-0.2,0.9
	c-0.1,0.5-0.3,0.9-0.7,1.3C18.3,20.6,17.6,21.3,17.6,21.3z"/>
<path class="st1" d="M22,16.7c0,0-4.9-13.8,11.5-15.1C35.9,9.1,35,16.8,22,16.7z"/>
<path class="st0" d="M22.3,18.2H22c-0.7,0-1.3-0.4-1.5-1.1c-0.1-0.3-2.2-6.4,1-11.4c2.2-3.4,6.2-5.3,11.9-5.8
	c0.7-0.1,1.4,0.4,1.7,1.1c1.7,5.4,1.4,9.7-0.8,12.7c-1.1,1.5-2.7,2.6-4.7,3.3C27.6,17.9,25.1,18.2,22.3,18.2z M32.4,3.3
	c-4,0.5-6.7,1.9-8.2,4.2c-1,1.5-1.4,3.4-1.2,5.7c0.1,0.7,0.2,1.4,0.3,1.9c4.2-0.1,7-1.2,8.5-3.2C33.1,10,33.3,7.1,32.4,3.3z"/>
<path class="st0" d="M14.2,40.5c-0.2,0-0.3,0-0.5-0.1c-1.2-0.5-2.4-1.6-3.7-3.1c-0.9-1.1-1.4-2-1.4-2.1c-0.4-0.6-0.1-1.4,0.5-1.7
	c0.6-0.4,1.4-0.1,1.7,0.5c0.5,0.9,2.2,3.4,3.9,4.1c0.6,0.3,0.9,1,0.6,1.7C15.1,40.2,14.7,40.5,14.2,40.5z"/>
</svg>
